<?xml version="1.0" encoding="utf-8"?><svg xmlns="http://www.w3.org/2000/svg" width="232" height="55.84"><defs><clipPath id="a"><path data-name="Rectangle 915" fill="none" d="M0 0h232v55.84H0z"/></clipPath></defs><g data-name="Groupe 2818"><g data-name="Groupe 2631" clip-path="url(#a)" fill="#fff"><path data-name="Tracé 46533" d="M20.197 51.392a4.469 4.469 0 1 1 4.47 4.448 4.331 4.331 0 0 1-4.47-4.448m7.025 0a2.563 2.563 0 1 0-2.555 2.752 2.562 2.562 0 0 0 2.559-2.752"/><path data-name="Tracé 46534" d="M30.606 51.908v-4.816h1.89v4.742c0 1.634.676 2.31 1.82 2.31s1.821-.676 1.821-2.31v-4.742h1.867v4.816c0 2.531-1.377 3.931-3.7 3.931s-3.7-1.4-3.7-3.931"/><path data-name="Tracé 46535" d="M41.539 48.714h-2.614v-1.622h7.118v1.622h-2.614v6.978h-1.89z"/><path data-name="Tracé 46563" d="M15.151 48.713h-2.614v-1.622h7.118v1.622h-2.614v6.978h-1.89z"/><path data-name="Tracé 46536" d="M53.501 54.096v1.6h-6.325v-8.6h6.173v1.6h-4.294v1.867h3.792v1.548h-3.792v1.99z"/><path data-name="Tracé 46537" d="M54.481 54.845l.642-1.5a4.641 4.641 0 0 0 2.7.9c1.121 0 1.575-.393 1.575-.921 0-1.609-4.749-.5-4.749-3.7 0-1.462 1.12-2.678 3.443-2.678a5.267 5.267 0 0 1 2.835.762l-.583 1.511a4.439 4.439 0 0 0-2.264-.676c-1.12 0-1.552.443-1.552.983 0 1.585 4.75.491 4.75 3.649 0 1.438-1.132 2.666-3.466 2.666a5.613 5.613 0 0 1-3.326-1"/><path data-name="Tracé 46538" d="M66.103 47.093h1.89v6.978h4.1v1.622h-5.986z"/><path data-name="Tracé 46539" d="M79.592 54.096v1.6h-6.324v-8.6h6.173v1.6h-4.294v1.867h3.792v1.548h-3.792v1.99z"/><path data-name="Tracé 46540" d="M80.573 54.845l.642-1.5a4.641 4.641 0 0 0 2.7.9c1.121 0 1.575-.393 1.575-.921 0-1.609-4.749-.5-4.749-3.7 0-1.462 1.12-2.678 3.443-2.678a5.267 5.267 0 0 1 2.835.762l-.583 1.511a4.439 4.439 0 0 0-2.264-.676c-1.12 0-1.552.443-1.552.983 0 1.585 4.75.491 4.75 3.649 0 1.438-1.132 2.666-3.466 2.666a5.613 5.613 0 0 1-3.326-1"/><path data-name="Tracé 46541" d="M94.086 48.689v2.272h3.781v1.6h-3.781v3.133h-1.89v-8.6h6.173v1.6z"/><path data-name="Tracé 46542" d="M99.172 51.392a4.469 4.469 0 1 1 4.47 4.448 4.331 4.331 0 0 1-4.47-4.448m7.025 0a2.562 2.562 0 1 0-2.555 2.752 2.563 2.563 0 0 0 2.555-2.752"/><path data-name="Tracé 46543" d="M114.857 55.692l-1.575-2.4h-1.739v2.4h-1.89v-8.6h3.536c2.182 0 3.548 1.192 3.548 3.12a2.8 2.8 0 0 1-1.68 2.715l1.832 2.764zm-1.774-6.978h-1.541v3h1.541c1.155 0 1.739-.565 1.739-1.5s-.584-1.5-1.739-1.5"/><path data-name="Tracé 46544" d="M117.832 51.392a4.3 4.3 0 0 1 4.434-4.447 4.125 4.125 0 0 1 3.361 1.524l-1.214 1.18a2.759 2.759 0 1 0 0 3.477l1.214 1.18a4.107 4.107 0 0 1-3.372 1.536 4.3 4.3 0 0 1-4.422-4.448"/><path data-name="Tracé 46545" d="M133.34 54.096v1.6h-6.325v-8.6h6.173v1.6h-4.294v1.867h3.793v1.548h-3.793v1.99z"/><path data-name="Tracé 46546" d="M134.32 54.845l.642-1.5a4.641 4.641 0 0 0 2.7.9c1.12 0 1.575-.393 1.575-.921 0-1.609-4.749-.5-4.749-3.7 0-1.462 1.12-2.678 3.443-2.678a5.269 5.269 0 0 1 2.835.762l-.584 1.511a4.438 4.438 0 0 0-2.264-.676c-1.12 0-1.552.443-1.552.983 0 1.585 4.749.491 4.749 3.649 0 1.438-1.132 2.666-3.466 2.666a5.615 5.615 0 0 1-3.326-1"/><path data-name="Tracé 46547" d="M145.942 47.092h3.711a4.3 4.3 0 1 1 0 8.6h-3.711zm3.617 6.966a2.666 2.666 0 1 0 0-5.332h-1.727v5.332z"/><path data-name="Tracé 46548" d="M155.628 51.908v-4.816h1.89v4.742c0 1.634.677 2.31 1.82 2.31s1.82-.676 1.82-2.31v-4.742h1.867v4.816c0 2.531-1.377 3.931-3.7 3.931s-3.7-1.4-3.7-3.931"/><path data-name="Tracé 46549" d="M176.282 47.093l-3.536 8.6h-1.867l-3.524-8.6h2.04l2.485 6.143 2.521-6.143z"/><path data-name="Tracé 46550" d="M183.4 54.095v1.6h-6.325v-8.6h6.173v1.6h-4.294v1.867h3.793v1.545h-3.793v1.99zm-2.871-7.7h-1.424l1.575-1.769h1.961z"/><path data-name="Tracé 46551" d="M190.518 51.257h1.727v3.489a5.444 5.444 0 0 1-3.3 1.093 4.448 4.448 0 1 1 .035-8.895 4.252 4.252 0 0 1 3.419 1.487l-1.213 1.18a2.7 2.7 0 0 0-2.112-.971 2.753 2.753 0 0 0-.024 5.5 2.881 2.881 0 0 0 1.47-.368z"/><path data-name="Tracé 46552" d="M200.437 54.095v1.6h-6.325v-8.6h6.173v1.6h-4.294v1.867h3.793v1.545h-3.793v1.99zm-2.871-7.7h-1.424l1.575-1.769h1.96z"/><path data-name="Tracé 46553" d="M203.751 48.714h-2.614v-1.622h7.118v1.622h-2.614v6.978h-1.89z"/><path data-name="Tracé 46554" d="M214.358 53.849h-3.792l-.724 1.843h-1.935l3.64-8.6h1.867l3.652 8.6h-1.984zm-.6-1.511l-1.3-3.293-1.3 3.293z"/><path data-name="Tracé 46555" d="M218.034 47.093h1.89v6.978h4.1v1.622h-5.986z"/><path data-name="Tracé 46556" d="M36.23.733a7.424 7.424 0 0 0-6.83 4.518l-8.24 19.366-8.048-19.316A7.424 7.424 0 0 0 6.259.733H0l15.661 36.664h5.318a7.424 7.424 0 0 0 6.824-4.5L41.587.733z"/><path data-name="Tracé 46557" d="M63.606.733H58.23a7.425 7.425 0 0 0-6.792 4.426L37.206 37.397h5.575a7.424 7.424 0 0 0 6.882-4.64l1-2.483h15.5l1 2.482a7.422 7.422 0 0 0 6.881 4.641h5.785zm-9.588 21.894l4.754-10.857 4.362 10.857z"/><path data-name="Tracé 46558" d="M102.286 26.031c-1.938 2.514-3.981 3.823-6.338 3.823-2.985 0-4.609-1.833-4.609-5.342V8.157A7.424 7.424 0 0 0 83.915.733h-2.842v23.149c0 9.532 4.923 14.246 14.142 14.246 5.342 0 9.9-1.886 12.728-5.395z"/><path data-name="Tracé 46559" d="M143.941.733a7.424 7.424 0 0 0-7.424 7.424v6.352h-14.141V8.157a7.424 7.424 0 0 0-7.424-7.424h-2.947v36.664h2.947a7.424 7.424 0 0 0 7.424-7.424v-6.875h14.142v6.875a7.424 7.424 0 0 0 7.424 7.424h2.947V.733z"/><path data-name="Tracé 46560" d="M224.091 25.874a12.166 12.166 0 0 0 7.178-11.575c0-8.38-6.285-13.566-16.289-13.566h-16.76v36.664h2.949a7.424 7.424 0 0 0 7.424-7.424v-2.318h5.657l4.441 6.5a7.423 7.423 0 0 0 6.131 3.238h7.184zm-9.742-6.233h-5.761V8.904h5.761c4.3 0 6.442 1.99 6.442 5.395 0 3.352-2.147 5.342-6.442 5.342"/><path data-name="Tracé 46561" d="M152.021 19.065C152.021 8.066 160.661 0 172.396 0s20.375 8.066 20.375 19.065-8.643 19.065-20.375 19.065-20.375-8.066-20.375-19.065m30.274 0c0-6.337-4.348-10.475-9.9-10.475s-9.9 4.138-9.9 10.475 4.347 10.475 9.9 10.475 9.9-4.138 9.9-10.475"/></g></g></svg>