<?xml version="1.0" encoding="UTF-8"?><svg id="Calque_2" xmlns="http://www.w3.org/2000/svg" xmlns:xlink="http://www.w3.org/1999/xlink" viewBox="0 0 585.48 140.93"><defs><style>.cls-1{fill:#006e43;}.cls-2{fill:#4c9c2e;}.cls-3{fill:url(#Dégradé_sans_nom_14);}.cls-4{fill:url(#Dégradé_sans_nom_4);}.cls-5{fill:url(#Dégradé_sans_nom_6);}.cls-6{fill:url(#Dégradé_sans_nom_4-4);}.cls-7{fill:url(#Dégradé_sans_nom_4-3);}.cls-8{fill:url(#Dégradé_sans_nom_4-2);}</style><linearGradient id="Dégradé_sans_nom_4" x1="26.7" y1="94.38" x2="26.7" y2="1.85" gradientUnits="userSpaceOnUse"><stop offset=".1" stop-color="#76bc21"/><stop offset=".2" stop-color="#6db623"/><stop offset=".38" stop-color="#54a52a"/><stop offset=".59" stop-color="#2d8b35"/><stop offset=".8" stop-color="#006e43"/></linearGradient><linearGradient id="Dégradé_sans_nom_4-2" x1="164.68" y1="1.85" x2="164.68" y2="94.38" xlink:href="#Dégradé_sans_nom_4"/><linearGradient id="Dégradé_sans_nom_6" x1="233.1" y1="86.69" x2="260.13" y2="66.32" gradientUnits="userSpaceOnUse"><stop offset=".2" stop-color="#76bc21"/><stop offset=".29" stop-color="#6db623"/><stop offset=".44" stop-color="#54a52a"/><stop offset=".62" stop-color="#2d8b35"/><stop offset=".8" stop-color="#006e43"/></linearGradient><linearGradient id="Dégradé_sans_nom_4-3" x1="308.83" y1="48.11" x2="370.69" y2="48.11" xlink:href="#Dégradé_sans_nom_4"/><linearGradient id="Dégradé_sans_nom_4-4" x1="507.66" y1="48.11" x2="585.48" y2="48.11" xlink:href="#Dégradé_sans_nom_4"/><linearGradient id="Dégradé_sans_nom_14" x1="434.89" y1="-3.33" x2="468.15" y2="88.04" gradientUnits="userSpaceOnUse"><stop offset=".2" stop-color="#76bc21"/><stop offset=".75" stop-color="#006e43"/></linearGradient></defs><g id="LOGOTYPE"><g><g><path class="cls-2" d="M38.34,122.94h-6.6v-4.09h17.96v4.09h-6.6v17.61h-4.77v-17.61Z"/><path class="cls-2" d="M50.97,129.7c0-6.45,4.77-11.22,11.28-11.22s11.28,4.74,11.28,11.22-4.8,11.22-11.28,11.22-11.28-4.78-11.28-11.22Zm17.73,0c0-4.12-2.77-6.95-6.45-6.95s-6.45,2.82-6.45,6.95,2.77,6.95,6.45,6.95,6.45-2.82,6.45-6.95Z"/><path class="cls-2" d="M77.24,131v-12.15h4.77v11.97c0,4.12,1.71,5.83,4.59,5.83s4.59-1.71,4.59-5.83v-11.97h4.71v12.15c0,6.39-3.48,9.92-9.34,9.92s-9.34-3.54-9.34-9.92Z"/><path class="cls-2" d="M104.84,122.94h-6.6v-4.09h17.96v4.09h-6.6v17.61h-4.77v-17.61Z"/><path class="cls-2" d="M135.02,136.52v4.03h-15.96v-21.7h15.58v4.03h-10.84v4.71h9.57v3.91h-9.57v5.02h11.22Z"/><path class="cls-2" d="M137.5,138.41l1.62-3.78c1.74,1.33,4.33,2.26,6.8,2.26,2.83,0,3.98-.99,3.98-2.33,0-4.06-11.99-1.27-11.99-9.33,0-3.69,2.83-6.76,8.69-6.76,2.59,0,5.24,.65,7.16,1.92l-1.47,3.81c-1.91-1.15-3.89-1.71-5.71-1.71-2.83,0-3.92,1.12-3.92,2.48,0,4,11.99,1.24,11.99,9.21,0,3.63-2.86,6.73-8.75,6.73-3.27,0-6.57-1.02-8.39-2.51Z"/><path class="cls-2" d="M166.83,118.85h4.77v17.61h10.34v4.09h-15.11v-21.7Z"/><path class="cls-2" d="M200.87,136.52v4.03h-15.96v-21.7h15.58v4.03h-10.84v4.71h9.57v3.91h-9.57v5.02h11.22Z"/><path class="cls-2" d="M203.34,138.41l1.62-3.78c1.74,1.33,4.33,2.26,6.8,2.26,2.83,0,3.98-.99,3.98-2.33,0-4.06-11.99-1.27-11.99-9.33,0-3.69,2.83-6.76,8.69-6.76,2.59,0,5.24,.65,7.16,1.92l-1.47,3.81c-1.91-1.15-3.89-1.71-5.71-1.71-2.83,0-3.92,1.12-3.92,2.48,0,4,11.99,1.24,11.99,9.21,0,3.63-2.86,6.73-8.75,6.73-3.27,0-6.57-1.02-8.39-2.51Z"/><path class="cls-2" d="M237.45,122.88v5.74h9.54v4.03h-9.54v7.91h-4.77v-21.7h15.58v4.03h-10.81Z"/><path class="cls-2" d="M250.29,129.7c0-6.45,4.77-11.22,11.28-11.22s11.28,4.74,11.28,11.22-4.8,11.22-11.28,11.22-11.28-4.78-11.28-11.22Zm17.73,0c0-4.12-2.77-6.95-6.45-6.95s-6.45,2.82-6.45,6.95,2.77,6.95,6.45,6.95,6.45-2.82,6.45-6.95Z"/><path class="cls-2" d="M289.87,140.55l-3.98-6.05h-4.39v6.05h-4.77v-21.7h8.92c5.51,0,8.95,3.01,8.95,7.88,0,3.26-1.56,5.64-4.24,6.85l4.62,6.98h-5.12Zm-4.48-17.61h-3.89v7.57h3.89c2.92,0,4.39-1.43,4.39-3.78s-1.47-3.78-4.39-3.78Z"/><path class="cls-2" d="M297.38,129.7c0-6.54,4.77-11.22,11.19-11.22,3.56,0,6.54,1.36,8.48,3.84l-3.06,2.98c-1.38-1.67-3.12-2.54-5.18-2.54-3.86,0-6.6,2.85-6.6,6.95s2.74,6.95,6.6,6.95c2.06,0,3.8-.87,5.18-2.57l3.06,2.98c-1.94,2.51-4.92,3.88-8.51,3.88-6.39,0-11.16-4.68-11.16-11.22Z"/><path class="cls-2" d="M336.52,136.52v4.03h-15.96v-21.7h15.58v4.03h-10.84v4.71h9.57v3.91h-9.57v5.02h11.22Z"/><path class="cls-2" d="M338.99,138.41l1.62-3.78c1.74,1.33,4.33,2.26,6.8,2.26,2.83,0,3.98-.99,3.98-2.33,0-4.06-11.99-1.27-11.99-9.33,0-3.69,2.83-6.76,8.69-6.76,2.59,0,5.24,.65,7.16,1.92l-1.47,3.81c-1.91-1.15-3.89-1.71-5.71-1.71-2.83,0-3.92,1.12-3.92,2.48,0,4,11.99,1.24,11.99,9.21,0,3.63-2.86,6.73-8.75,6.73-3.27,0-6.57-1.02-8.39-2.51Z"/><path class="cls-2" d="M368.32,118.85h9.37c6.74,0,11.37,4.28,11.37,10.85s-4.62,10.85-11.37,10.85h-9.37v-21.7Zm9.13,17.58c4.09,0,6.77-2.57,6.77-6.73s-2.68-6.73-6.77-6.73h-4.36v13.46h4.36Z"/><path class="cls-2" d="M392.76,131v-12.15h4.77v11.97c0,4.12,1.71,5.83,4.59,5.83s4.59-1.71,4.59-5.83v-11.97h4.71v12.15c0,6.39-3.47,9.92-9.33,9.92s-9.34-3.54-9.34-9.92Z"/><path class="cls-2" d="M444.89,118.85l-8.92,21.7h-4.71l-8.89-21.7h5.15l6.27,15.5,6.36-15.5h4.74Z"/><path class="cls-2" d="M462.85,136.52v4.03h-15.96v-21.7h15.58v4.03h-10.84v4.71h9.57v3.91h-9.57v5.02h11.22Zm-7.25-19.44h-3.59l3.98-4.46h4.95l-5.33,4.46Z"/><path class="cls-2" d="M480.82,129.36h4.36v8.81c-2.27,1.8-5.39,2.76-8.33,2.76-6.48,0-11.25-4.68-11.25-11.22s4.77-11.22,11.34-11.22c3.62,0,6.63,1.3,8.63,3.75l-3.06,2.98c-1.5-1.67-3.24-2.45-5.33-2.45-4.01,0-6.74,2.82-6.74,6.95s2.74,6.95,6.68,6.95c1.3,0,2.5-.25,3.71-.93v-6.36Z"/><path class="cls-2" d="M505.85,136.52v4.03h-15.96v-21.7h15.58v4.03h-10.84v4.71h9.57v3.91h-9.57v5.02h11.22Zm-7.25-19.44h-3.59l3.98-4.46h4.95l-5.33,4.46Z"/><path class="cls-2" d="M514.21,122.94h-6.6v-4.09h17.96v4.09h-6.6v17.61h-4.77v-17.61Z"/><path class="cls-2" d="M540.98,135.9h-9.57l-1.83,4.65h-4.89l9.19-21.7h4.71l9.22,21.7h-5.01l-1.83-4.65Zm-1.5-3.81l-3.27-8.31-3.27,8.31h6.54Z"/><path class="cls-2" d="M550.26,118.85h4.77v17.61h10.34v4.09h-15.11v-21.7Z"/></g><g><path class="cls-1" d="M53.4,62.12L74.19,13.25c2.94-6.91,9.73-11.4,17.24-11.4h13.52l-34.79,81.17c-2.95,6.89-9.73,11.35-17.22,11.35h-13.42l13.88-32.25Z"/><path class="cls-1" d="M127.87,76.4l-2.53,6.27c-2.86,7.08-9.73,11.71-17.37,11.71h-14.07L129.81,13.02c3-6.79,9.72-11.17,17.14-11.17h13.57l-32.65,74.55Z"/><path class="cls-1" d="M240.29,96.23c-23.26,0-35.69-11.9-35.69-35.95V1.85h7.17c10.35,0,18.73,8.39,18.73,18.73,0,0,0,20.19,0,41.27s9.78,34.37,9.78,34.37Z"/><path class="cls-1" d="M308.83,58.29v17.35c0,10.35-8.39,18.73-18.73,18.73h-7.44V1.85h7.44c10.35,0,18.73,8.39,18.73,18.73v16.03s0,21.68,0,21.68Z"/><path class="cls-1" d="M526.4,69.79v5.85c0,10.35-8.39,18.73-18.73,18.73h-7.44V1.85h7.44c10.35,0,18.73,8.39,18.73,18.73v49.21Z"/><path class="cls-1" d="M435.06,96.23c-29.61,0-51.42-20.36-51.42-48.11,0-23.37,15.46-41.49,38.01-46.64,6.88-1.57,13.41,3.74,13.41,10.8h0c0,4.89-3.24,9.12-7.9,10.59-10.02,3.16-17.08,12.42-17.08,25.25,0,15.99,10.97,26.44,24.98,26.44v21.68Z"/><path class="cls-4" d="M33.09,13.38C30.18,6.4,23.36,1.85,15.8,1.85H0L39.52,94.38l13.88-32.25L33.09,13.38Z"/><path class="cls-8" d="M160.52,1.85l-12.2,27.85,11.01,27.4h-23.01l-8.45,19.3h39.12l2.53,6.27c2.86,7.08,9.73,11.71,17.37,11.71h14.6L160.52,1.85Z"/><path class="cls-5" d="M258.13,65.69c-4.89,6.34-10.05,9.65-15.99,9.65-7.53,0-11.63-4.63-11.63-13.48,0,21.09,9.78,34.37,9.78,34.37,13.48,0,24.98-4.76,32.12-13.61l-14.28-16.92Z"/><path class="cls-7" d="M363.25,1.85c-10.35,0-18.73,8.39-18.73,18.73v16.03h-35.69v21.68h35.69v17.35c0,10.35,8.39,18.73,18.73,18.73h7.44V1.85h-7.44Z"/><path class="cls-6" d="M565.52,65.3c11.5-5.55,18.11-15.6,18.11-29.21,0-21.15-15.86-34.23-41.11-34.23h-34.86c10.35,0,18.73,8.39,18.73,18.73v1.89h14.54c10.84,0,16.26,5.02,16.26,13.61s-5.42,13.48-16.26,13.48h-14.54v20.22h14.28l11.21,16.41c3.49,5.11,9.28,8.17,15.47,8.17h18.13l-19.96-29.08Z"/><path class="cls-3" d="M435.06,0c-4.67,0-9.14,.51-13.37,1.47,6.86-1.54,13.37,3.77,13.37,10.81,0,4.89-3.24,9.12-7.9,10.59-.07,.02-.13,.05-.2,.07,2.53-.82,5.25-1.26,8.1-1.26,14.01,0,24.98,10.44,24.98,26.44s-10.97,26.44-24.98,26.44v21.68c29.61,0,51.42-20.36,51.42-48.11S464.67,0,435.06,0Z"/></g></g></g></svg>